<svg xmlns="http://www.w3.org/2000/svg" width="512" height="512" viewBox="0 0 512 512" version="1.1">
	<path d="M 85.500 1.457 C 38.572 10.146, 2.523 50.631, 0.424 97 L -0.051 107.500 26.385 153 L 52.822 198.500 26.411 225.043 L 0 251.585 -0 378.870 L -0 506.154 2.923 509.077 L 5.846 512 256.055 512 L 506.264 512 509.632 508.429 L 513 504.858 513 377.870 C 513 308.026, 512.663 251.023, 512.250 251.194 C 511.837 251.366, 499.728 239.580, 485.340 225.003 L 459.180 198.500 484.340 154.950 C 498.178 130.997, 510.288 110.201, 511.250 108.735 C 512.529 106.787, 513 104.027, 513 98.476 C 513 93.668, 512.633 91.109, 512 91.500 C 511.424 91.856, 510.999 90.927, 510.997 89.309 C 510.996 87.764, 509.886 82.360, 508.530 77.300 C 498.909 41.388, 471.734 14.097, 434.806 3.261 L 425.500 0.530 259 0.345 C 126.274 0.198, 91.080 0.423, 85.500 1.457 M 92.561 21.143 C 65.761 24.579, 41.284 42.443, 28.968 67.554 C 25.480 74.666, 21 88.816, 21 92.720 C 21 93.905, 28.550 94.070, 70.250 93.796 C 118.970 93.476, 119.562 93.447, 125.240 91.168 C 132.778 88.142, 140.265 82.424, 145.080 76.016 C 149.321 70.372, 153 60.073, 153 53.845 C 153 42.482, 163.205 37.005, 170.600 44.400 C 173.190 46.990, 174 48.646, 174 51.351 C 174 66.429, 183.784 82.238, 197.295 88.989 C 200.608 90.645, 203.923 92, 204.660 92 C 205.755 92, 206 85.427, 206 56 L 206 20 152.750 20.126 C 123.462 20.196, 96.377 20.653, 92.561 21.143 M 226 57 L 226 94 236 94 L 246 94 246 84.923 C 246 76.224, 246.122 75.724, 248.923 72.923 C 253.039 68.807, 258.961 68.807, 263.077 72.923 C 265.878 75.724, 266 76.224, 266 84.923 L 266 94 276 94 L 286 94 286 57 L 286 20 256 20 L 226 20 226 57 M 306 56.934 L 306 94 398.588 94 L 491.176 94 490.492 89.750 C 489.391 82.908, 485.153 71.009, 481.322 64 C 470.373 43.973, 451.382 29.180, 428.446 22.813 C 420.762 20.679, 418.614 20.595, 363.250 20.237 L 306 19.868 306 56.934 M 159.190 91.484 C 156.975 94.321, 153.115 98.185, 150.612 100.071 C 148.109 101.957, 146.067 103.725, 146.074 104 C 146.080 104.275, 148.355 106.251, 151.128 108.391 C 153.902 110.530, 157.752 114.399, 159.685 116.987 L 163.198 121.694 171.936 112.847 L 180.674 104 171.946 95.163 L 163.218 86.327 159.190 91.484 M 0.349 100 C 0.349 104.675, 0.522 106.587, 0.732 104.250 C 0.943 101.912, 0.943 98.087, 0.732 95.750 C 0.522 93.412, 0.349 95.325, 0.349 100 M 30.891 119.250 C 32.573 122.138, 42.397 139.226, 52.724 157.224 L 71.500 189.947 126.203 189.974 C 166.435 189.993, 181.600 190.316, 183.528 191.195 C 186.195 192.410, 189 196.642, 189 199.450 C 189 200.763, 190.821 201, 200.921 201 L 212.841 201 213.494 198.027 C 214.347 194.144, 219.319 190, 223.126 190 C 228.857 190, 234 194.516, 234 199.547 C 234 200.736, 236.163 201, 245.921 201 L 257.841 201 258.494 198.027 C 258.853 196.392, 260.498 193.917, 262.150 192.527 L 265.153 190 305.102 190 L 345.051 190 343.622 187.236 C 341.614 183.352, 332.146 174.625, 327.207 172.106 C 322.020 169.460, 312.731 167, 307.925 167 C 300.533 167, 295.519 159.481, 298.366 152.666 C 300.253 148.150, 302.684 146.927, 311.806 145.904 C 328.068 144.080, 341.417 133.937, 347.044 119.128 L 348.992 114 283.746 114.033 C 247.861 114.051, 215.395 114.465, 211.601 114.954 C 198.364 116.660, 186.455 124.541, 179.704 136.063 C 176.797 141.024, 174 150.682, 174 155.760 C 174 165.540, 163.969 170.518, 156.931 164.230 C 154.175 161.767, 153.733 160.588, 152.950 153.601 C 150.680 133.368, 135.998 117.870, 116.417 115.039 C 112.613 114.490, 91.125 114.031, 68.667 114.020 L 27.835 114 30.891 119.250 M 373.932 119.064 C 379.479 133.662, 396.098 146, 410.214 146 C 418.896 146, 424.866 151.569, 423.573 158.462 C 422.553 163.898, 419.166 166.100, 409.662 167.503 C 405.023 168.189, 398.700 169.906, 395.611 171.320 C 389.612 174.067, 380.661 181.860, 377.693 186.920 L 375.887 190 408.193 189.974 L 440.500 189.947 459.276 157.224 C 469.603 139.226, 479.427 122.138, 481.109 119.250 L 484.165 114 428.087 114 L 372.008 114 373.932 119.064 M 351.705 148.351 C 346.868 153.242, 343.043 157.327, 343.205 157.429 C 346.813 159.697, 353.037 165.408, 356.396 169.531 L 360.716 174.834 364.513 169.855 C 366.602 167.116, 370.677 163.026, 373.570 160.767 L 378.830 156.659 375.142 153.988 C 373.114 152.519, 368.990 148.648, 365.977 145.387 L 360.500 139.458 351.705 148.351 M 0.485 379 C 0.485 449.125, 0.604 477.813, 0.750 442.750 C 0.896 407.688, 0.896 350.313, 0.750 315.250 C 0.604 280.188, 0.485 308.875, 0.485 379 M 20 299 C 20 317.150, 20.337 331.996, 20.750 331.991 C 21.163 331.985, 23.785 330.671, 26.578 329.069 C 36.230 323.532, 42.318 313.882, 43.577 302.121 C 44.542 293.112, 47.112 290.542, 56.121 289.577 C 67.882 288.318, 77.532 282.230, 83.069 272.578 C 84.671 269.785, 85.985 267.163, 85.991 266.750 C 85.996 266.337, 71.150 266, 53 266 L 20 266 20 299 M 106.605 269.291 C 105.868 273.220, 99.652 286.479, 98.096 287.441 C 97.493 287.813, 97 288.541, 97 289.059 C 97 289.643, 157.315 290, 256 290 C 354.685 290, 415 289.643, 415 289.059 C 415 288.541, 414.507 287.813, 413.904 287.441 C 412.348 286.479, 406.132 273.220, 405.395 269.291 L 404.777 266 256 266 L 107.223 266 106.605 269.291 M 426.009 266.750 C 426.015 267.163, 427.329 269.785, 428.931 272.578 C 434.468 282.230, 444.118 288.318, 455.879 289.577 C 464.888 290.542, 467.458 293.112, 468.423 302.121 C 469.682 313.882, 475.770 323.532, 485.422 329.069 C 488.215 330.671, 490.837 331.985, 491.250 331.991 C 491.663 331.996, 492 317.150, 492 299 L 492 266 459 266 C 440.850 266, 426.004 266.337, 426.009 266.750 M 226.187 328.250 C 226.622 349.243, 227.801 353.453, 235.308 360.801 C 250.281 375.458, 274.409 370.770, 283.180 351.500 C 285.225 347.008, 285.493 344.647, 285.823 328.250 L 286.191 310 276.095 310 L 266 310 266 317.854 C 266 324.772, 265.712 326.019, 263.585 328.314 C 262.257 329.747, 260.007 331.211, 258.585 331.568 C 254.884 332.497, 251.199 331.318, 248.415 328.314 C 246.288 326.019, 246 324.772, 246 317.854 L 246 310 235.905 310 L 225.809 310 226.187 328.250 M 41.441 344.096 C 40.479 345.652, 27.220 351.868, 23.291 352.605 L 20 353.223 20 379 L 20 404.777 23.291 405.395 C 27.220 406.132, 40.479 412.348, 41.441 413.904 C 43.636 417.455, 44 412.484, 44 379 C 44 345.516, 43.636 340.545, 41.441 344.096 M 468 379 C 468 412.484, 468.364 417.455, 470.559 413.904 C 471.521 412.348, 484.780 406.132, 488.709 405.395 L 492 404.777 492 379 L 492 353.223 488.709 352.605 C 484.780 351.868, 471.521 345.652, 470.559 344.096 C 468.364 340.545, 468 345.516, 468 379 M 20 459 L 20 492 53 492 C 71.150 492, 85.996 491.663, 85.991 491.250 C 85.985 490.837, 84.671 488.215, 83.069 485.422 C 77.532 475.770, 67.882 469.682, 56.121 468.423 C 47.112 467.458, 44.542 464.888, 43.577 455.879 C 42.318 444.118, 36.230 434.468, 26.578 428.931 C 23.785 427.329, 21.163 426.015, 20.750 426.009 C 20.337 426.004, 20 440.850, 20 459 M 485.422 428.931 C 475.770 434.468, 469.682 444.118, 468.423 455.879 C 467.458 464.888, 464.888 467.458, 455.879 468.423 C 444.118 469.682, 434.468 475.770, 428.931 485.422 C 427.329 488.215, 426.015 490.837, 426.009 491.250 C 426.004 491.663, 440.850 492, 459 492 L 492 492 492 459 C 492 440.850, 491.663 426.004, 491.250 426.009 C 490.837 426.015, 488.215 427.329, 485.422 428.931 M 97 468.941 C 97 469.459, 97.493 470.187, 98.096 470.559 C 99.652 471.521, 105.868 484.780, 106.605 488.709 L 107.223 492 256 492 L 404.777 492 405.395 488.709 C 406.132 484.780, 412.348 471.521, 413.904 470.559 C 414.507 470.187, 415 469.459, 415 468.941 C 415 468.357, 354.685 468, 256 468 C 157.315 468, 97 468.357, 97 468.941" stroke="none" fill="black" fill-rule="evenodd"/>
</svg>